<mxfile host="app.diagrams.net" agent="Mozilla/5.0 (Windows NT 10.0; Win64; x64) AppleWebKit/537.36 (KHTML, like Gecko) Chrome/128.0.0.0 Safari/537.36" version="24.7.8">
  <diagram name="‫עמוד-1‬" id="9gCyP-xOjD5dcYOPeIzJ">
    <mxGraphModel dx="1050" dy="522" grid="1" gridSize="10" guides="1" tooltips="1" connect="1" arrows="1" fold="1" page="1" pageScale="1" pageWidth="827" pageHeight="1169" math="0" shadow="0">
      <root>
        <mxCell id="0" />
        <mxCell id="1" parent="0" />
        <mxCell id="nP1eanwkThaqdAtxU4lt-1" value="END" style="rounded=1;whiteSpace=wrap;html=1;" vertex="1" parent="1">
          <mxGeometry x="280" y="600" width="120" height="60" as="geometry" />
        </mxCell>
        <mxCell id="nP1eanwkThaqdAtxU4lt-39" value="" style="edgeStyle=orthogonalEdgeStyle;rounded=0;orthogonalLoop=1;jettySize=auto;html=1;entryX=0.5;entryY=0;entryDx=0;entryDy=0;entryPerimeter=0;" edge="1" parent="1" source="nP1eanwkThaqdAtxU4lt-2" target="nP1eanwkThaqdAtxU4lt-35">
          <mxGeometry relative="1" as="geometry" />
        </mxCell>
        <mxCell id="nP1eanwkThaqdAtxU4lt-2" value="START" style="rounded=1;whiteSpace=wrap;html=1;" vertex="1" parent="1">
          <mxGeometry x="280" width="120" height="60" as="geometry" />
        </mxCell>
        <mxCell id="nP1eanwkThaqdAtxU4lt-23" value="" style="edgeStyle=orthogonalEdgeStyle;rounded=0;orthogonalLoop=1;jettySize=auto;html=1;" edge="1" parent="1">
          <mxGeometry relative="1" as="geometry">
            <mxPoint x="180" y="370" as="sourcePoint" />
            <mxPoint x="180" y="370" as="targetPoint" />
          </mxGeometry>
        </mxCell>
        <mxCell id="nP1eanwkThaqdAtxU4lt-40" value="" style="edgeStyle=orthogonalEdgeStyle;rounded=0;orthogonalLoop=1;jettySize=auto;html=1;" edge="1" parent="1" source="nP1eanwkThaqdAtxU4lt-35" target="nP1eanwkThaqdAtxU4lt-36">
          <mxGeometry relative="1" as="geometry" />
        </mxCell>
        <mxCell id="nP1eanwkThaqdAtxU4lt-35" value="x(int)= enter a number" style="shape=card;whiteSpace=wrap;html=1;" vertex="1" parent="1">
          <mxGeometry x="280" y="80" width="120" height="50" as="geometry" />
        </mxCell>
        <mxCell id="nP1eanwkThaqdAtxU4lt-42" value="" style="edgeStyle=orthogonalEdgeStyle;rounded=0;orthogonalLoop=1;jettySize=auto;html=1;" edge="1" parent="1" source="nP1eanwkThaqdAtxU4lt-36" target="nP1eanwkThaqdAtxU4lt-41">
          <mxGeometry relative="1" as="geometry" />
        </mxCell>
        <mxCell id="nP1eanwkThaqdAtxU4lt-36" value="y(int)= enter a number" style="shape=card;whiteSpace=wrap;html=1;" vertex="1" parent="1">
          <mxGeometry x="280" y="150" width="120" height="50" as="geometry" />
        </mxCell>
        <mxCell id="nP1eanwkThaqdAtxU4lt-37" style="edgeStyle=orthogonalEdgeStyle;rounded=0;orthogonalLoop=1;jettySize=auto;html=1;exitX=0.5;exitY=1;exitDx=0;exitDy=0;exitPerimeter=0;" edge="1" parent="1" source="nP1eanwkThaqdAtxU4lt-35" target="nP1eanwkThaqdAtxU4lt-35">
          <mxGeometry relative="1" as="geometry" />
        </mxCell>
        <mxCell id="nP1eanwkThaqdAtxU4lt-45" value="" style="edgeStyle=orthogonalEdgeStyle;rounded=0;orthogonalLoop=1;jettySize=auto;html=1;" edge="1" parent="1" source="nP1eanwkThaqdAtxU4lt-41" target="nP1eanwkThaqdAtxU4lt-44">
          <mxGeometry relative="1" as="geometry" />
        </mxCell>
        <mxCell id="nP1eanwkThaqdAtxU4lt-46" value="yes" style="edgeLabel;html=1;align=center;verticalAlign=middle;resizable=0;points=[];" vertex="1" connectable="0" parent="nP1eanwkThaqdAtxU4lt-45">
          <mxGeometry x="-0.1741" y="2" relative="1" as="geometry">
            <mxPoint as="offset" />
          </mxGeometry>
        </mxCell>
        <mxCell id="nP1eanwkThaqdAtxU4lt-60" value="" style="edgeStyle=orthogonalEdgeStyle;rounded=0;orthogonalLoop=1;jettySize=auto;html=1;" edge="1" parent="1" source="nP1eanwkThaqdAtxU4lt-41" target="nP1eanwkThaqdAtxU4lt-59">
          <mxGeometry relative="1" as="geometry" />
        </mxCell>
        <mxCell id="nP1eanwkThaqdAtxU4lt-61" value="no" style="edgeLabel;html=1;align=center;verticalAlign=middle;resizable=0;points=[];" vertex="1" connectable="0" parent="nP1eanwkThaqdAtxU4lt-60">
          <mxGeometry x="-0.005" y="2" relative="1" as="geometry">
            <mxPoint as="offset" />
          </mxGeometry>
        </mxCell>
        <mxCell id="nP1eanwkThaqdAtxU4lt-41" value="x&amp;gt;y&lt;div&gt;?&lt;/div&gt;" style="rhombus;whiteSpace=wrap;html=1;" vertex="1" parent="1">
          <mxGeometry x="280" y="220" width="120" height="100" as="geometry" />
        </mxCell>
        <mxCell id="nP1eanwkThaqdAtxU4lt-58" value="" style="edgeStyle=orthogonalEdgeStyle;rounded=0;orthogonalLoop=1;jettySize=auto;html=1;" edge="1" parent="1" source="nP1eanwkThaqdAtxU4lt-44" target="nP1eanwkThaqdAtxU4lt-57">
          <mxGeometry relative="1" as="geometry" />
        </mxCell>
        <mxCell id="nP1eanwkThaqdAtxU4lt-44" value="y" style="shape=document;whiteSpace=wrap;html=1;boundedLbl=1;" vertex="1" parent="1">
          <mxGeometry x="60" y="360" width="120" height="60" as="geometry" />
        </mxCell>
        <mxCell id="nP1eanwkThaqdAtxU4lt-57" value="x" style="shape=document;whiteSpace=wrap;html=1;boundedLbl=1;" vertex="1" parent="1">
          <mxGeometry x="60" y="480" width="120" height="60" as="geometry" />
        </mxCell>
        <mxCell id="nP1eanwkThaqdAtxU4lt-63" value="" style="edgeStyle=orthogonalEdgeStyle;rounded=0;orthogonalLoop=1;jettySize=auto;html=1;" edge="1" parent="1" source="nP1eanwkThaqdAtxU4lt-59" target="nP1eanwkThaqdAtxU4lt-62">
          <mxGeometry relative="1" as="geometry" />
        </mxCell>
        <mxCell id="nP1eanwkThaqdAtxU4lt-70" value="yes" style="edgeLabel;html=1;align=center;verticalAlign=middle;resizable=0;points=[];" vertex="1" connectable="0" parent="nP1eanwkThaqdAtxU4lt-63">
          <mxGeometry x="-0.5" y="1" relative="1" as="geometry">
            <mxPoint as="offset" />
          </mxGeometry>
        </mxCell>
        <mxCell id="nP1eanwkThaqdAtxU4lt-67" value="" style="edgeStyle=orthogonalEdgeStyle;rounded=0;orthogonalLoop=1;jettySize=auto;html=1;" edge="1" parent="1" source="nP1eanwkThaqdAtxU4lt-59" target="nP1eanwkThaqdAtxU4lt-66">
          <mxGeometry relative="1" as="geometry" />
        </mxCell>
        <mxCell id="nP1eanwkThaqdAtxU4lt-68" value="no" style="edgeLabel;html=1;align=center;verticalAlign=middle;resizable=0;points=[];" vertex="1" connectable="0" parent="nP1eanwkThaqdAtxU4lt-67">
          <mxGeometry x="-0.24" y="-4" relative="1" as="geometry">
            <mxPoint as="offset" />
          </mxGeometry>
        </mxCell>
        <mxCell id="nP1eanwkThaqdAtxU4lt-59" value="y&amp;gt;x&lt;div&gt;?&lt;/div&gt;" style="rhombus;whiteSpace=wrap;html=1;" vertex="1" parent="1">
          <mxGeometry x="500" y="220" width="120" height="100" as="geometry" />
        </mxCell>
        <mxCell id="nP1eanwkThaqdAtxU4lt-65" value="" style="edgeStyle=orthogonalEdgeStyle;rounded=0;orthogonalLoop=1;jettySize=auto;html=1;" edge="1" parent="1" source="nP1eanwkThaqdAtxU4lt-62" target="nP1eanwkThaqdAtxU4lt-64">
          <mxGeometry relative="1" as="geometry" />
        </mxCell>
        <mxCell id="nP1eanwkThaqdAtxU4lt-62" value="x" style="shape=document;whiteSpace=wrap;html=1;boundedLbl=1;" vertex="1" parent="1">
          <mxGeometry x="500" y="380" width="120" height="60" as="geometry" />
        </mxCell>
        <mxCell id="nP1eanwkThaqdAtxU4lt-64" value="y" style="shape=document;whiteSpace=wrap;html=1;boundedLbl=1;" vertex="1" parent="1">
          <mxGeometry x="500" y="480" width="120" height="60" as="geometry" />
        </mxCell>
        <mxCell id="nP1eanwkThaqdAtxU4lt-72" value="" style="edgeStyle=orthogonalEdgeStyle;rounded=0;orthogonalLoop=1;jettySize=auto;html=1;" edge="1" parent="1" source="nP1eanwkThaqdAtxU4lt-66" target="nP1eanwkThaqdAtxU4lt-71">
          <mxGeometry relative="1" as="geometry" />
        </mxCell>
        <mxCell id="nP1eanwkThaqdAtxU4lt-66" value="x&amp;nbsp;" style="shape=document;whiteSpace=wrap;html=1;boundedLbl=1;" vertex="1" parent="1">
          <mxGeometry x="680" y="380" width="110" height="60" as="geometry" />
        </mxCell>
        <mxCell id="nP1eanwkThaqdAtxU4lt-71" value="y" style="shape=document;whiteSpace=wrap;html=1;boundedLbl=1;" vertex="1" parent="1">
          <mxGeometry x="680" y="480" width="110" height="60" as="geometry" />
        </mxCell>
        <mxCell id="nP1eanwkThaqdAtxU4lt-74" value="" style="endArrow=none;html=1;rounded=0;entryX=0;entryY=0.5;entryDx=0;entryDy=0;" edge="1" parent="1" target="nP1eanwkThaqdAtxU4lt-64">
          <mxGeometry width="50" height="50" relative="1" as="geometry">
            <mxPoint x="180" y="510" as="sourcePoint" />
            <mxPoint x="230" y="460" as="targetPoint" />
          </mxGeometry>
        </mxCell>
        <mxCell id="nP1eanwkThaqdAtxU4lt-78" value="" style="endArrow=none;html=1;rounded=0;entryX=0;entryY=0.5;entryDx=0;entryDy=0;" edge="1" parent="1">
          <mxGeometry width="50" height="50" relative="1" as="geometry">
            <mxPoint x="620" y="509.5" as="sourcePoint" />
            <mxPoint x="680" y="509.5" as="targetPoint" />
          </mxGeometry>
        </mxCell>
        <mxCell id="nP1eanwkThaqdAtxU4lt-79" value="" style="endArrow=classic;html=1;rounded=0;entryX=0.5;entryY=0;entryDx=0;entryDy=0;" edge="1" parent="1" target="nP1eanwkThaqdAtxU4lt-1">
          <mxGeometry width="50" height="50" relative="1" as="geometry">
            <mxPoint x="340" y="510" as="sourcePoint" />
            <mxPoint x="440" y="430" as="targetPoint" />
          </mxGeometry>
        </mxCell>
      </root>
    </mxGraphModel>
  </diagram>
</mxfile>
